<mxfile host="app.diagrams.net" modified="2024-06-11T14:37:00.794Z" agent="Mozilla/5.0 (Windows NT 10.0; Win64; x64) AppleWebKit/537.36 (KHTML, like Gecko) Chrome/125.0.0.0 Safari/537.36 Edg/125.0.0.0" etag="uJI-YP1ZbbVrK8O_2LEf" version="24.5.3" type="device">
  <diagram id="piDafpqhtRUU5qUU-vj8" name="Page-1">
    <mxGraphModel dx="2258" dy="813" grid="1" gridSize="10" guides="1" tooltips="1" connect="1" arrows="1" fold="1" page="1" pageScale="1" pageWidth="827" pageHeight="1169" math="0" shadow="0">
      <root>
        <mxCell id="0" />
        <mxCell id="1" parent="0" />
        <mxCell id="GRjJk_PplDnbiY5jg0T1-1" value="" style="swimlane;startSize=0;" vertex="1" parent="1">
          <mxGeometry x="-2" width="830" height="680" as="geometry" />
        </mxCell>
        <mxCell id="GRjJk_PplDnbiY5jg0T1-14" value="" style="verticalLabelPosition=bottom;verticalAlign=top;strokeWidth=1;shape=mxgraph.mockup.graphics.iconGrid;strokeColor=#CCCCCC;gridSize=1,1;" vertex="1" parent="GRjJk_PplDnbiY5jg0T1-1">
          <mxGeometry x="242" y="140" width="530" height="460" as="geometry" />
        </mxCell>
        <mxCell id="GRjJk_PplDnbiY5jg0T1-2" value="" style="line;strokeWidth=1" vertex="1" parent="GRjJk_PplDnbiY5jg0T1-1">
          <mxGeometry y="610" width="826" height="10" as="geometry" />
        </mxCell>
        <mxCell id="GRjJk_PplDnbiY5jg0T1-3" value="" style="html=1;shadow=0;dashed=0;shape=mxgraph.bootstrap.rrect;rSize=5;strokeColor=none;html=1;whiteSpace=wrap;fillColor=#6C767D;fontColor=#ffffff;sketch=0;" vertex="1" parent="GRjJk_PplDnbiY5jg0T1-1">
          <mxGeometry x="10" y="130" width="210" height="490" as="geometry" />
        </mxCell>
        <mxCell id="GRjJk_PplDnbiY5jg0T1-4" value="Dashboard" style="strokeColor=inherit;fillColor=inherit;gradientColor=inherit;fontColor=inherit;html=1;shadow=0;dashed=0;shape=mxgraph.bootstrap.topButton;rSize=5;perimeter=none;whiteSpace=wrap;resizeWidth=1;sketch=0;" vertex="1" parent="GRjJk_PplDnbiY5jg0T1-3">
          <mxGeometry width="210" height="30" relative="1" as="geometry" />
        </mxCell>
        <mxCell id="GRjJk_PplDnbiY5jg0T1-5" value="Invoices" style="strokeColor=inherit;fillColor=inherit;gradientColor=inherit;fontColor=inherit;html=1;shadow=0;dashed=0;perimeter=none;whiteSpace=wrap;resizeWidth=1;sketch=0;" vertex="1" parent="GRjJk_PplDnbiY5jg0T1-3">
          <mxGeometry width="210" height="30" relative="1" as="geometry">
            <mxPoint y="30" as="offset" />
          </mxGeometry>
        </mxCell>
        <mxCell id="GRjJk_PplDnbiY5jg0T1-6" value="Products" style="strokeColor=inherit;fillColor=inherit;gradientColor=inherit;fontColor=inherit;html=1;shadow=0;dashed=0;perimeter=none;whiteSpace=wrap;resizeWidth=1;sketch=0;" vertex="1" parent="GRjJk_PplDnbiY5jg0T1-3">
          <mxGeometry width="210" height="30" relative="1" as="geometry">
            <mxPoint y="60" as="offset" />
          </mxGeometry>
        </mxCell>
        <mxCell id="GRjJk_PplDnbiY5jg0T1-7" value="Profile" style="strokeColor=inherit;fillColor=inherit;gradientColor=inherit;fontColor=inherit;html=1;shadow=0;dashed=0;perimeter=none;whiteSpace=wrap;resizeWidth=1;sketch=0;" vertex="1" parent="GRjJk_PplDnbiY5jg0T1-3">
          <mxGeometry width="210" height="30" relative="1" as="geometry">
            <mxPoint y="90" as="offset" />
          </mxGeometry>
        </mxCell>
        <mxCell id="GRjJk_PplDnbiY5jg0T1-8" value="" style="strokeColor=inherit;fillColor=inherit;gradientColor=inherit;fontColor=inherit;html=1;shadow=0;dashed=0;perimeter=none;whiteSpace=wrap;resizeWidth=1;sketch=0;" vertex="1" parent="GRjJk_PplDnbiY5jg0T1-3">
          <mxGeometry width="210" height="30" relative="1" as="geometry">
            <mxPoint y="120" as="offset" />
          </mxGeometry>
        </mxCell>
        <mxCell id="GRjJk_PplDnbiY5jg0T1-9" value="Log Out" style="strokeColor=inherit;fillColor=inherit;gradientColor=inherit;fontColor=inherit;html=1;shadow=0;dashed=0;shape=mxgraph.bootstrap.bottomButton;rSize=5;perimeter=none;whiteSpace=wrap;resizeWidth=1;resizeHeight=0;sketch=0;" vertex="1" parent="GRjJk_PplDnbiY5jg0T1-3">
          <mxGeometry y="1" width="210" height="30" relative="1" as="geometry">
            <mxPoint y="-280" as="offset" />
          </mxGeometry>
        </mxCell>
        <mxCell id="GRjJk_PplDnbiY5jg0T1-10" value="Invoices" style="strokeWidth=1;shadow=0;dashed=0;align=center;html=1;shape=mxgraph.mockup.forms.comboBox;strokeColor=#666666;fillColor=#787878;align=left;fillColor2=#aaddff;mainText=;fontSize=17;spacingLeft=3;gradientColor=#b3b3b3;" vertex="1" parent="GRjJk_PplDnbiY5jg0T1-3">
          <mxGeometry x="70" y="40" width="140" height="20" as="geometry" />
        </mxCell>
        <mxCell id="GRjJk_PplDnbiY5jg0T1-13" value="2024 SISONKE Invoicing System" style="text;html=1;align=center;verticalAlign=middle;resizable=0;points=[];autosize=1;strokeColor=none;fillColor=none;" vertex="1" parent="GRjJk_PplDnbiY5jg0T1-1">
          <mxGeometry x="330" y="630" width="200" height="30" as="geometry" />
        </mxCell>
        <mxCell id="GRjJk_PplDnbiY5jg0T1-17" value="" style="line;strokeWidth=1" vertex="1" parent="GRjJk_PplDnbiY5jg0T1-1">
          <mxGeometry x="23" y="100" width="780" height="10" as="geometry" />
        </mxCell>
        <mxCell id="GRjJk_PplDnbiY5jg0T1-19" value="Account Details" style="text;spacingTop=-5;" vertex="1" parent="GRjJk_PplDnbiY5jg0T1-1">
          <mxGeometry x="702" y="70" width="90" height="20" as="geometry" />
        </mxCell>
        <mxCell id="GRjJk_PplDnbiY5jg0T1-20" value="Profile Details" style="text;html=1;align=center;verticalAlign=middle;whiteSpace=wrap;rounded=0;spacing=6;fontSize=20;" vertex="1" parent="GRjJk_PplDnbiY5jg0T1-1">
          <mxGeometry x="292" y="170" width="158" height="30" as="geometry" />
        </mxCell>
        <mxCell id="GRjJk_PplDnbiY5jg0T1-21" value="UserName" style="text;html=1;align=center;verticalAlign=middle;whiteSpace=wrap;rounded=0;fontSize=19;" vertex="1" parent="GRjJk_PplDnbiY5jg0T1-1">
          <mxGeometry x="271" y="240" width="98" height="30" as="geometry" />
        </mxCell>
        <mxCell id="GRjJk_PplDnbiY5jg0T1-22" value="Firstname" style="text;html=1;align=center;verticalAlign=middle;whiteSpace=wrap;rounded=0;fontSize=19;" vertex="1" parent="GRjJk_PplDnbiY5jg0T1-1">
          <mxGeometry x="282" y="280" width="60" height="30" as="geometry" />
        </mxCell>
        <mxCell id="GRjJk_PplDnbiY5jg0T1-23" value="Lastname" style="text;html=1;align=center;verticalAlign=middle;whiteSpace=wrap;rounded=0;fontSize=19;" vertex="1" parent="GRjJk_PplDnbiY5jg0T1-1">
          <mxGeometry x="282" y="320" width="60" height="30" as="geometry" />
        </mxCell>
        <mxCell id="GRjJk_PplDnbiY5jg0T1-24" value="Email&lt;div style=&quot;font-size: 19px;&quot;&gt;&lt;br style=&quot;font-size: 19px;&quot;&gt;&lt;/div&gt;" style="text;html=1;align=left;verticalAlign=middle;whiteSpace=wrap;rounded=0;fontSize=19;" vertex="1" parent="GRjJk_PplDnbiY5jg0T1-1">
          <mxGeometry x="271" y="370" width="82" height="20" as="geometry" />
        </mxCell>
        <mxCell id="GRjJk_PplDnbiY5jg0T1-25" value="Address&lt;div style=&quot;font-size: 19px;&quot;&gt;&lt;br style=&quot;font-size: 19px;&quot;&gt;&lt;/div&gt;" style="text;html=1;align=center;verticalAlign=middle;whiteSpace=wrap;rounded=0;fontSize=19;" vertex="1" parent="GRjJk_PplDnbiY5jg0T1-1">
          <mxGeometry x="260" y="400" width="93" height="30" as="geometry" />
        </mxCell>
        <mxCell id="GRjJk_PplDnbiY5jg0T1-26" value="Phone number" style="text;html=1;align=center;verticalAlign=middle;whiteSpace=wrap;rounded=0;fontSize=20;" vertex="1" parent="GRjJk_PplDnbiY5jg0T1-1">
          <mxGeometry x="271" y="420" width="138" height="30" as="geometry" />
        </mxCell>
        <mxCell id="GRjJk_PplDnbiY5jg0T1-27" value="Role" style="text;html=1;align=center;verticalAlign=middle;whiteSpace=wrap;rounded=0;fontSize=19;" vertex="1" parent="GRjJk_PplDnbiY5jg0T1-1">
          <mxGeometry x="260" y="450" width="71" height="30" as="geometry" />
        </mxCell>
        <mxCell id="GRjJk_PplDnbiY5jg0T1-28" value=":" style="text;html=1;align=center;verticalAlign=middle;whiteSpace=wrap;rounded=0;fontSize=40;" vertex="1" parent="GRjJk_PplDnbiY5jg0T1-1">
          <mxGeometry x="400" y="240" width="60" height="30" as="geometry" />
        </mxCell>
        <mxCell id="GRjJk_PplDnbiY5jg0T1-32" value=":" style="text;html=1;align=center;verticalAlign=middle;whiteSpace=wrap;rounded=0;fontSize=40;" vertex="1" parent="GRjJk_PplDnbiY5jg0T1-1">
          <mxGeometry x="400" y="450" width="60" height="30" as="geometry" />
        </mxCell>
        <mxCell id="GRjJk_PplDnbiY5jg0T1-31" value=":" style="text;html=1;align=center;verticalAlign=middle;whiteSpace=wrap;rounded=0;fontSize=40;" vertex="1" parent="GRjJk_PplDnbiY5jg0T1-1">
          <mxGeometry x="400" y="390" width="60" height="30" as="geometry" />
        </mxCell>
        <mxCell id="GRjJk_PplDnbiY5jg0T1-30" value=":" style="text;html=1;align=center;verticalAlign=middle;whiteSpace=wrap;rounded=0;fontSize=40;" vertex="1" parent="GRjJk_PplDnbiY5jg0T1-1">
          <mxGeometry x="400" y="340" width="60" height="30" as="geometry" />
        </mxCell>
        <mxCell id="GRjJk_PplDnbiY5jg0T1-33" value=":" style="text;html=1;align=center;verticalAlign=middle;whiteSpace=wrap;rounded=0;fontSize=40;" vertex="1" parent="GRjJk_PplDnbiY5jg0T1-1">
          <mxGeometry x="400" y="280" width="60" height="30" as="geometry" />
        </mxCell>
        <mxCell id="GRjJk_PplDnbiY5jg0T1-16" value="" style="line;strokeWidth=1" vertex="1" parent="1">
          <mxGeometry x="20" y="60" width="780" height="10" as="geometry" />
        </mxCell>
        <mxCell id="GRjJk_PplDnbiY5jg0T1-18" value="Profile" style="text;spacingTop=-5;" vertex="1" parent="1">
          <mxGeometry x="20" y="70.00000000000009" width="30" height="20" as="geometry" />
        </mxCell>
        <mxCell id="GRjJk_PplDnbiY5jg0T1-36" value="LOGO" style="whiteSpace=wrap;html=1;rounded=0;shadow=0;labelBackgroundColor=none;strokeWidth=1;fontFamily=Verdana;fontSize=28;align=center;comic=1;" vertex="1" parent="1">
          <mxGeometry x="21" y="10" width="100" height="50" as="geometry" />
        </mxCell>
      </root>
    </mxGraphModel>
  </diagram>
</mxfile>
